HIERARCHY
ROOT joint_0
{
	OFFSET 0.000000 0.000000 0.000000
	CHANNELS 6 Xposition Yposition Zposition Zrotation Yrotation Xrotation 
	JOINT joint_1
	{
		OFFSET 0.000000 0.000000 0.000000
		CHANNELS 3 Zrotation Yrotation Xrotation
		JOINT joint_2
		{
			OFFSET 3.811170 -8.520760 0.839290
			CHANNELS 3 Zrotation Yrotation Xrotation
			JOINT joint_3
			{
				OFFSET 2.562200 -7.039590 0.000000
				CHANNELS 3 Zrotation Yrotation Xrotation
				JOINT joint_4
				{
					OFFSET 0.157640 -0.433110 2.322550
					CHANNELS 3 Zrotation Yrotation Xrotation
					End Site
					{
						OFFSET 0.000000 0.000000 0.000000
					}
				}
			}
		}
	}
	JOINT joint_5
	{
		OFFSET 0.000000 0.000000 0.000000
		CHANNELS 3 Zrotation Yrotation Xrotation
		JOINT joint_6
		{
			OFFSET -3.848050 -8.780180 0.839290
			CHANNELS 3 Zrotation Yrotation Xrotation
			JOINT joint_7
			{
				OFFSET -2.568260 -7.056230 0.000000
				CHANNELS 3 Zrotation Yrotation Xrotation
				JOINT joint_8
				{
					OFFSET -0.164730 -0.452590 2.363150
					CHANNELS 3 Zrotation Yrotation Xrotation
					End Site
					{
						OFFSET 0.000000 0.000000 0.000000
					}
				}
			}
		}
	}
	JOINT joint_9
	{
		OFFSET 0.028270 2.035590 -0.193380
		CHANNELS 3 Zrotation Yrotation Xrotation
		JOINT joint_10
		{
			OFFSET 0.056720 2.048850 -0.042750
			CHANNELS 3 Zrotation Yrotation Xrotation
			JOINT joint_11
			{
				OFFSET -0.054170 1.746240 0.172020
				CHANNELS 3 Zrotation Yrotation Xrotation
				JOINT joint_12
				{
					OFFSET 0.104070 1.761360 -0.123970
					CHANNELS 3 Zrotation Yrotation Xrotation
					End Site
					{
						OFFSET 0.000000 0.000000 0.000000
					}
				}
			}
			JOINT joint_13
			{
				OFFSET 3.362410 1.200890 -0.311210
				CHANNELS 3 Zrotation Yrotation Xrotation
				JOINT joint_14
				{
					OFFSET 4.983000 -0.000000 -0.000000
					CHANNELS 3 Zrotation Yrotation Xrotation
					JOINT joint_15
					{
						OFFSET 3.483560 -0.000000 -0.000000
						CHANNELS 3 Zrotation Yrotation Xrotation
						JOINT joint_16
						{
							OFFSET 0.715260 -0.000000 -0.000000
							CHANNELS 3 Zrotation Yrotation Xrotation
							End Site
							{
								OFFSET 0.000000 0.000000 0.000000
							}
						}
					}
				}
			}
			JOINT joint_17
			{
				OFFSET -3.136600 1.374050 -0.404650
				CHANNELS 3 Zrotation Yrotation Xrotation
				JOINT joint_18
				{
					OFFSET -5.241900 -0.000000 -0.000000
					CHANNELS 3 Zrotation Yrotation Xrotation
					JOINT joint_19
					{
						OFFSET -3.444170 -0.000000 -0.000000
						CHANNELS 3 Zrotation Yrotation Xrotation
						JOINT joint_20
						{
							OFFSET -0.622530 -0.000000 -0.000000
							CHANNELS 3 Zrotation Yrotation Xrotation
							End Site
							{
								OFFSET 0.000000 0.000000 0.000000
							}
						}
					}
				}
			}
		}
	}
}
MOTION
Frames: 17
Frame Time: 0.031667
-2.459858 14.507683 5.742495 170.276443 -42.221558 178.379807 -58.567615 -24.836496 -45.084562 -28.306109 3.555260 20.324211 -54.192907 -1.182326 -10.962814 1.837403 0.047264 -3.403202 -22.312228 -5.875912 26.895340 77.251154 -16.446850 -8.103488 40.634896 0.927050 -91.002387 0.290363 -0.258584 2.652031 10.341595 10.426320 6.338899 1.297487 8.558510 -18.125451 -6.126225 11.514120 3.542550 0.606209 -1.500701 4.762755 -57.731464 -16.065290 3.796217 -7.009609 -87.283814 1.336485 5.515223 -3.449460 -5.838664 -6.837669 -0.081335 -0.081359 93.781468 23.962848 52.984721 -92.928667 75.664564 -153.462533 -2.258125 1.394074 -8.954733 6.947931 0.037362 -0.031545 
-2.618448 14.527208 5.658350 170.375656 -37.557163 178.634201 -50.835158 -28.432937 -45.329811 -16.540524 1.853999 22.011500 -39.282361 3.447027 -14.643243 2.228560 0.058362 -3.059883 -23.488773 -7.579952 12.822254 78.024605 -22.634929 -0.595507 46.444730 1.357284 -99.076361 -0.200964 -0.770598 4.000970 -3.923150 10.437834 6.459496 1.712572 -3.874251 -5.064479 -6.434961 10.919965 7.723901 -1.211720 -1.788795 5.270778 -51.467381 -18.434841 -8.463754 -9.577221 -84.341505 1.497103 4.595340 -2.671224 -4.480211 -6.833768 -0.082230 -0.115585 101.772277 31.534157 59.004037 -176.246945 71.213364 100.802925 -6.397006 1.819709 -13.608923 6.904484 0.014110 -0.042989 
-2.764054 14.545231 5.564871 170.413406 -32.941769 178.892181 -58.372497 -25.509689 -57.808296 -14.570617 10.077046 31.027009 -59.144398 4.856898 -4.713683 2.134961 0.645981 -1.024498 -1.622413 -11.426312 8.082568 81.951888 -18.277482 -1.542731 45.972183 1.929064 -105.029424 -0.295684 -1.309325 5.258984 8.627524 7.010027 -10.375578 10.797147 -4.020888 0.830731 -3.367918 -0.492949 1.336519 -5.091559 -1.919230 5.189519 -57.778175 -18.576323 -22.463000 -1.820010 -83.639259 -2.123665 1.005415 -6.817628 -1.440931 -6.792900 -0.088355 -0.115945 93.274313 25.304860 70.260401 147.780065 60.873988 61.232969 -7.144677 3.215691 -14.907077 6.815160 -0.012497 -0.077875 
-2.906213 14.562422 5.467940 170.488632 -28.315804 179.197021 -58.923823 -16.302060 -60.088371 -20.705896 5.278310 11.088876 -15.022622 -7.824078 18.319486 1.432380 1.128158 0.807782 5.335880 -9.080357 14.099506 78.122379 -17.628691 -12.929248 33.828571 -2.313260 -110.507133 0.300425 -1.205280 4.603319 2.667512 9.942931 10.088151 8.497181 -0.268126 2.840105 8.333456 2.912909 -2.875756 -7.033678 -2.015240 3.401459 -85.813028 -10.341785 -34.883497 -3.607573 -78.825874 -2.454681 -6.806805 -4.705030 -11.615333 -6.665368 -0.112373 -0.117515 136.141762 29.294108 66.532176 176.284130 58.363183 70.718654 1.045259 0.632516 -3.230642 6.646242 -0.034515 -0.108641 
-3.037075 14.576888 5.359700 170.548111 -23.823706 179.467407 -63.117109 -17.789103 -52.326199 -18.273493 2.912365 14.639394 0.797002 -10.554978 14.400264 0.701593 0.917977 0.369386 6.277524 -10.303130 19.684942 72.940970 -10.621503 -23.696469 28.178702 -6.361503 -83.917671 0.972321 -0.441604 1.899006 -2.259211 15.352372 3.197778 -9.732560 -1.843538 12.960320 12.981582 4.406648 13.179197 -4.515381 -2.738014 3.259083 -88.581748 -7.066142 -31.166498 -17.536806 -87.796829 7.104768 -7.959145 -4.502799 -15.964635 -6.603159 -0.096065 -0.113265 128.051936 37.128437 28.133703 -131.425839 70.059684 -169.725119 -6.958095 4.884440 -0.567054 6.568305 -0.042257 -0.116315 
-3.164959 14.590025 5.247998 170.648514 -19.354546 179.764572 -49.189014 -11.798276 -35.736656 -12.824316 -0.773549 26.737380 28.700008 -9.350200 -4.756160 0.594799 1.020469 0.291982 -3.310092 -13.004568 21.149365 69.543347 -6.667502 -15.736896 27.770400 -6.065149 -56.738258 1.217560 -0.666140 2.085763 3.718693 14.674585 -5.124027 -1.685122 -1.402820 -6.503201 -0.205278 0.951065 14.283887 -1.730132 -3.993851 4.103042 -78.919189 -1.848452 -27.996952 -20.876982 -81.772794 7.865374 10.188354 -8.031811 7.884300 -6.640077 -0.119071 -0.104861 104.190417 26.286871 5.849388 -119.451439 62.931855 -149.510548 -6.122239 2.777049 -13.045915 6.598053 -0.001704 -0.101379 
-3.282469 14.598531 5.124234 170.778320 -15.053505 -179.976471 -48.625452 -6.841225 -36.513949 -18.261366 10.377707 30.537834 70.139534 -2.866143 -24.597308 1.198123 2.068273 3.033848 -3.200762 -8.484925 23.637014 89.421820 -20.290673 -11.923150 34.243833 -9.582025 -72.848837 0.959653 -1.218581 3.769767 -5.307905 15.560680 8.282800 -4.557766 -7.164921 -8.572955 1.798026 3.007464 10.987940 -1.539876 -4.772017 4.770484 -62.349074 -1.962210 -17.945386 -31.549842 -89.329442 7.964221 2.232644 -9.579077 10.567437 -6.710513 -0.150897 -0.068935 113.405565 36.015062 35.842722 -116.982646 67.445647 -172.924832 -7.893011 -1.163385 -20.309988 6.709875 0.027258 -0.076601 
-3.397201 14.605514 4.997565 170.957077 -10.781870 -179.693497 -49.094724 -19.223576 -48.494715 -11.689716 4.324697 33.106531 5.555950 -11.888257 -11.477419 2.034635 2.222002 3.522617 -4.179268 -12.310823 25.525942 71.346107 -22.567993 -6.813710 29.124586 -7.657626 -84.462379 0.707642 -1.748181 5.409218 -10.363319 20.273969 1.497331 -3.945166 -3.778271 -3.679783 -2.938884 5.176843 11.213086 -2.394084 -5.641373 3.208113 -56.381337 -4.607645 4.590851 167.432443 -81.172620 -176.230474 6.229047 -8.595720 11.290869 -6.781055 -0.142040 -0.065726 126.402172 38.919384 55.636569 -125.001596 65.838811 174.700164 -5.760348 5.837970 -19.505839 6.833017 0.032778 -0.054885 
-3.501622 14.606843 4.860115 171.189468 -6.673385 -179.448105 -39.053020 -10.916546 -51.032920 -18.111234 1.375053 32.100964 -22.169160 -10.315251 -37.292717 2.365177 2.001409 2.225391 -21.199041 -5.931437 21.891330 73.165710 -23.716821 -8.542308 34.875380 -4.436402 -90.511720 0.610913 -1.957380 6.240470 5.648652 10.609528 4.554713 -0.853295 0.915546 -11.062001 -6.101248 -3.277689 3.295327 -2.492082 -6.798296 1.439557 -57.309351 -1.492947 10.688310 168.983874 -82.007570 173.297348 10.557222 -2.809191 7.607164 -6.802252 -0.103777 -0.075550 118.740803 27.084156 42.637678 -157.731394 67.490098 87.372417 2.726471 3.827592 -16.830664 6.909781 0.012590 -0.045537 
-3.603539 14.607029 4.720396 171.478287 -2.584581 -179.173004 -32.700610 -6.014008 -64.302194 -26.183009 7.315008 22.806391 -17.486399 -13.865255 3.102820 2.256861 0.640857 -1.403816 -3.028691 -12.277293 19.844213 76.137389 -20.208879 1.959340 23.078668 -4.738556 -98.643566 0.428750 -1.151215 4.560852 -8.411580 13.623186 -3.856732 -2.064738 0.556627 -3.807864 -0.708962 -0.575597 4.725114 -3.216179 -6.632410 0.511062 -49.883569 -3.318648 7.369551 167.182140 -84.720480 -174.841647 -9.333948 -7.610823 1.820623 -6.843575 -0.068225 -0.077470 119.292327 31.736771 68.331945 -179.323902 61.062009 77.008274 5.094420 0.689160 -13.805854 7.004901 0.000054 -0.029806 
-3.695530 14.602684 4.571686 171.832626 1.375654 -178.939560 -36.572036 -8.321111 -49.389948 -19.156575 8.001418 9.354076 -35.244189 -12.751998 4.144273 1.922436 -0.644529 -5.036033 -6.795432 -10.802746 19.430645 68.252386 -13.828851 -4.533941 30.364064 -7.850667 -88.469569 0.479414 -0.994087 4.361981 -10.315353 14.035877 -1.111235 -5.646504 -4.786958 -3.345597 7.398691 -1.381844 6.285571 -4.798297 -6.964336 -1.112599 -55.546575 -0.723966 -0.411962 167.332105 -79.254293 -169.048222 2.794719 -8.432376 2.040337 -6.822460 -0.061361 -0.070127 106.496596 30.093632 55.942958 160.144579 58.136448 67.083033 1.262987 -0.406220 -12.115939 6.994843 -0.017249 -0.033120 
-3.785338 14.597994 4.421126 172.246323 5.330235 -178.664795 -32.957626 -8.100929 -56.599022 -5.421303 6.537279 21.491166 -11.977903 -14.998819 -5.618563 1.566308 -0.776087 -5.205597 -6.681347 -8.123515 9.064745 69.839278 -18.401298 -10.932893 26.418999 -9.134013 -79.819045 0.485292 -1.462489 5.731813 2.772387 4.626911 -3.924128 0.782811 6.154987 -5.022484 -6.467843 0.803259 -0.278015 -4.555757 -7.746959 -2.462434 -51.045067 -4.961045 -5.887696 171.103989 -85.279667 179.033134 -3.381388 -0.483837 1.862643 -6.789963 -0.055278 -0.051052 108.722336 29.579251 52.574090 -176.194809 60.529814 92.100622 1.025973 2.455951 -12.477460 6.994191 -0.012737 -0.026100 
-3.865871 14.591835 4.262709 172.722534 9.200757 -178.432083 -43.118523 -0.447397 -55.316281 -18.407122 8.474103 25.909235 18.846427 -13.038788 -3.974928 1.622036 0.150788 -2.277537 -18.469639 -12.245351 6.381637 69.995014 -22.043693 -8.637947 22.788812 -3.548641 -79.730745 0.745529 -0.507498 3.078675 3.495745 10.858584 -0.117655 -1.422080 -0.397324 -8.608099 3.665476 2.926608 4.137363 -4.907569 -7.446183 -2.926357 -41.265947 -2.844481 -1.868455 167.012071 -75.165400 -169.515017 -2.252592 -6.088235 2.345807 -6.757209 -0.083144 -0.050048 108.709291 33.036235 51.196987 -127.815367 55.330005 -179.932698 -15.819842 2.201526 -2.763033 6.975052 -0.004785 -0.027775 
-3.944309 14.586116 4.102765 173.253860 13.079476 -178.145386 -37.142821 -4.662503 -49.335863 -19.804115 6.109166 27.142361 -21.250086 -24.931451 -8.271814 1.755290 1.136916 0.464462 -13.943429 -15.645083 21.133145 79.183046 -20.338008 -8.310788 22.905830 -6.203836 -70.253017 1.017682 0.384913 0.422502 -9.577535 16.142312 4.893952 -8.470787 5.880045 -3.623912 1.385385 -0.880443 -0.945202 -3.971405 -6.394066 -3.119110 -45.051661 -3.350525 -10.005395 177.185149 -70.350158 172.013023 -5.502464 3.738525 5.174463 -6.795684 -0.092300 -0.055131 96.755258 31.720659 61.649547 -139.829605 54.978278 124.186109 -2.638960 2.055000 -6.116363 7.016717 -0.025330 -0.023075 
-4.013194 14.582400 3.935857 173.818298 16.912605 -177.895737 -25.155314 -0.289537 -33.979846 -10.630658 6.494127 27.260280 -0.504287 -18.908566 -10.181264 1.582464 1.515379 1.647608 -17.274826 -16.419602 17.624084 54.143118 -20.177064 -1.052152 26.784739 -8.421144 -78.752614 1.099416 0.613114 -0.217470 3.960682 7.277410 -6.308883 -10.283682 4.536563 -9.627668 6.607377 -1.269584 -12.136454 -2.053771 -5.784312 -3.539292 -44.316368 -12.179082 -20.012063 179.681967 -73.072446 166.367857 3.991280 -5.036456 6.325532 -6.777758 -0.085459 -0.060483 81.354738 36.113631 53.036579 -161.351926 59.586948 151.789432 -0.876362 -0.974419 -3.915872 6.968629 -0.024754 -0.026074 
-4.079897 14.579639 3.767890 174.430923 20.762396 -177.582199 -33.272806 -4.815456 -61.384044 -8.163200 2.200631 21.546870 -13.478449 -13.901497 11.352825 1.250329 1.074548 0.982021 -17.734598 -18.173305 21.516759 68.781501 -29.817768 1.000731 34.654034 -7.746544 -65.765248 0.978607 1.270724 -1.826761 1.449238 7.065016 7.122796 0.404692 -0.353390 -0.200292 -4.582422 5.180389 2.155468 -2.914786 -4.793004 -2.894894 -33.941993 -16.385178 -11.566618 -170.510856 -80.213211 177.095419 -1.298239 -8.869387 -1.045655 -6.765275 -0.100755 -0.072954 79.619973 42.279055 51.220688 -152.718978 58.108266 -173.436913 -1.276531 -0.904476 -13.365189 6.921765 -0.021942 -0.035086 
-4.135883 14.581572 3.594712 175.032425 24.587275 -177.295975 -20.423454 -4.101211 -47.655237 -14.391924 -3.853208 22.039646 -10.419607 -9.914738 -29.769677 0.968438 0.336665 -1.002652 -13.720868 -13.877655 14.740670 67.699899 -20.297331 2.698276 37.660816 -12.217587 -69.801323 0.730663 1.612945 -3.448075 -2.363230 2.739651 -6.219951 2.527512 0.832939 -6.749473 6.205679 4.513809 0.144518 -4.865635 -4.372665 -1.988810 -45.804055 -19.413296 -13.978319 -152.664249 -75.607232 152.236379 2.095759 -5.276406 -1.805448 -6.705324 -0.109191 -0.106975 91.093045 36.150275 72.400654 -120.704710 66.977793 -152.692929 4.132483 1.978344 -11.493184 6.786659 -0.042141 -0.060787 
